<?xml version="1.0" encoding="UTF-8"?>
<svg width="240px" height="57px" viewBox="0 0 240 57" version="1.1" xmlns="http://www.w3.org/2000/svg" xmlns:xlink="http://www.w3.org/1999/xlink">
    <!-- Generator: Sketch 57.1 (83088) - https://sketch.com -->
    <title>ezweath</title>
    <desc>Created with Sketch.</desc>
    <defs>
        <linearGradient x1="65.5123786%" y1="-1.94296459%" x2="50.7677844%" y2="47.4146036%" id="linearGradient-1">
            <stop stop-color="#C2C5E3" offset="0%"></stop>
            <stop stop-color="#EAEFF8" offset="100%"></stop>
        </linearGradient>
        <linearGradient x1="75.2436491%" y1="8.89918517%" x2="24.2610641%" y2="91.907653%" id="linearGradient-2">
            <stop stop-color="#C2C5E3" offset="0%"></stop>
            <stop stop-color="#EAEFF8" offset="100%"></stop>
        </linearGradient>
        <linearGradient x1="58.3703704%" y1="0.698412698%" x2="43.2169312%" y2="89.8730159%" id="linearGradient-3">
            <stop stop-color="#C2C5E3" offset="0%"></stop>
            <stop stop-color="#EAEFF8" offset="100%"></stop>
        </linearGradient>
    </defs>
    <g id="Page-1" stroke="none" stroke-width="1" fill="none" fill-rule="evenodd">
        <g id="Sunny" transform="translate(-23.000000, -29.000000)" fill-rule="nonzero">
            <g id="ezweath" transform="translate(23.000000, 29.000000)">
                <circle id="Oval" fill="url(#linearGradient-1)" cx="14.5" cy="36.5" r="14.5"></circle>
                <circle id="Oval" fill="url(#linearGradient-2)" cx="40.5" cy="28.5" r="28.5"></circle>
                <circle id="Oval" fill="url(#linearGradient-3)" cx="64.5" cy="32.5" r="21.5"></circle>
                <polygon id="Path" fill="#FFFFFF" points="94 36 94 12 110.402715 12 110.402715 16.8961424 99.6877828 16.8961424 99.6877828 21.4362018 109.819005 21.4362018 109.819005 26.0697329 99.6877828 26.0697329 99.6877828 31.0593472 111 31.0593472 111 36"></polygon>
                <polygon id="Path" fill="#FFFFFF" points="113 36 113 30.9775718 124.471529 16.8934198 113.272706 16.8934198 113.272706 12 131.758588 12 131.758588 16.657646 120.014353 30.986469 132 30.986469 132 36"></polygon>
                <polygon id="Path" fill="#FFFFFF" points="162.103205 36 156.328205 36 151.540385 19.7626113 151.441667 19.7626113 146.653846 36 140.847436 36 134 12 140.282051 12 144.109615 27.9658754 144.212821 27.9658754 148.520513 12 154.600641 12 158.939744 27.9658754 159.042949 27.9658754 162.937821 12 169 12"></polygon>
                <path d="M186.998991,27.1911827 L186.998991,27.8692997 C187.000401,28.0838526 186.989767,28.298319 186.967138,28.5117263 L174.457829,28.5117263 C174.495337,28.9704734 174.643507,29.4139145 174.890126,29.8055022 C175.136295,30.1928814 175.452409,30.5330355 175.822978,30.8092938 C176.209219,31.0943424 176.639325,31.3172276 177.097116,31.4695656 C177.571575,31.6288536 178.069978,31.7087843 178.571476,31.7060143 C179.359699,31.7302935 180.141671,31.561632 180.846723,31.2152717 C181.446923,30.9068777 181.969293,30.4709571 182.375689,29.9393411 L186.325518,32.3885926 C185.518459,33.5450959 184.410907,34.4692163 183.11742,35.0653702 C181.666874,35.7113507 180.086961,36.0299817 178.494118,35.9977811 C177.244512,36.0016874 176.003129,35.7995998 174.821869,35.3999674 C173.704339,35.024096 172.674166,34.4341833 171.79124,33.6645233 C170.91152,32.8864876 170.214433,31.9306078 169.748068,30.8628294 C169.230217,29.6595718 168.975966,28.3630803 169.001787,27.0573438 C168.982492,25.7697867 169.230194,24.4918067 169.729866,23.3009326 C170.180854,22.2274536 170.853214,21.2569091 171.704781,20.4501644 C172.553682,19.6584474 173.5544,19.0397618 174.64895,18.6299556 C175.827029,18.1975096 177.077018,17.9841841 178.33485,18.0009129 C179.53323,17.9874336 180.722983,18.201027 181.838731,18.6299556 C182.874529,19.0299246 183.807,19.6500521 184.569027,20.4457031 C185.358808,21.278871 185.967282,22.2609728 186.357372,23.3321616 C186.799603,24.5718634 187.016762,25.8779679 186.998991,27.1911827 Z M181.765923,25.0497606 C181.782853,24.2130906 181.481079,23.4002744 180.919531,22.7700383 C180.256115,22.0981075 179.322449,21.7499422 178.371254,21.8197823 C177.851625,21.8136428 177.335156,21.8997971 176.846839,22.0740762 C176.402829,22.2333327 175.991382,22.4690168 175.631857,22.7700383 C175.296705,23.0592299 175.021673,23.4091568 174.821869,23.8005977 C174.616459,24.1846256 174.498467,24.607769 174.476031,25.040838 L181.765923,25.0497606 Z" id="Shape" fill="#FFFFFF"></path>
                <path d="M189.817073,20.8754592 C190.805505,19.9180634 191.982164,19.1843526 193.269603,18.7226194 C194.5591,18.2465203 195.920503,18.003157 197.292396,18.003508 C198.50839,17.9721277 199.720763,18.1514719 200.877544,18.5338526 C201.802081,18.8484984 202.623448,19.4161023 203.251434,20.1743256 C203.894493,20.9980935 204.347677,21.9579858 204.57763,22.9833546 C204.879496,24.3092049 205.020533,25.6676486 204.997592,27.0283563 L204.997592,35.5947711 L199.953628,35.5947711 L199.953628,33.7969926 L199.851953,33.7969926 C199.388049,34.5334465 198.71185,35.1063528 197.915708,35.4374655 C197.027321,35.8220293 196.069632,36.0133963 195.104173,35.9992713 C194.400324,35.9938177 193.699712,35.901761 193.017625,35.7251101 C192.313662,35.5453428 191.646289,35.2410767 191.046015,34.8262208 C190.440794,34.4052091 189.938686,33.8485909 189.578358,33.1992312 C189.173787,32.4192552 188.97574,31.5456945 189.003674,30.6643634 C188.959038,29.5773592 189.322503,28.5137499 190.020423,27.6890399 C190.724414,26.90725 191.601971,26.3078227 192.579981,25.9407003 C193.700504,25.512799 194.871856,25.237742 196.063455,25.122711 C197.305573,24.986201 198.553972,24.917188 199.803326,24.9159665 L199.803326,24.6418053 C199.85173,23.9052622 199.51601,23.1970138 198.919196,22.77661 C198.275743,22.3609762 197.523817,22.1526247 196.761918,22.1788487 C195.976767,22.1785928 195.201124,22.3534943 194.489702,22.6912155 C193.807432,23.0007904 193.1766,23.4162359 192.619767,23.9226939 L189.817073,20.8754592 Z M199.953628,28.1699457 L199.246324,28.1699457 C198.640695,28.1699457 198.026224,28.1969124 197.411753,28.2553402 C196.850233,28.2981604 196.295452,28.406746 195.75843,28.5789403 C195.31378,28.7184369 194.9058,28.9580938 194.564854,29.280074 C194.246573,29.5990972 194.074912,30.0394904 194.091844,30.4935745 C194.083963,30.7839184 194.160878,31.0701263 194.312876,31.3160582 C194.457317,31.5423842 194.652826,31.7303714 194.88314,31.8643806 C195.12249,32.0064357 195.384229,32.1052757 195.656755,32.1565196 C195.933323,32.2127422 196.214636,32.241343 196.496678,32.2419141 C197.447704,32.307028 198.382177,31.9648065 199.073918,31.2980804 C199.690445,30.6020993 200.008641,29.6849537 199.958049,28.7497293 L199.953628,28.1699457 Z" id="Shape" fill="#FFFFFF"></path>
                <path d="M215.070562,22.6902809 L215.070562,29.2361482 C215.025411,29.8695211 215.179959,30.5010232 215.511577,31.0381764 C215.815877,31.4391277 216.358324,31.6373508 217.14333,31.6373508 C217.429739,31.6358927 217.715672,31.6133086 217.998897,31.5697747 C218.258699,31.5379739 218.512675,31.4681822 218.753032,31.3625415 L218.823594,35.4801758 C218.351956,35.6407943 217.868135,35.7613394 217.377067,35.8405815 C216.794672,35.9455727 216.204404,35.9983328 215.61301,35.9982589 C214.653602,36.0182619 213.698223,35.8657709 212.790518,35.5477519 C212.086752,35.3015073 211.456596,34.8749455 210.960309,34.3088575 C210.498435,33.7526963 210.166633,33.0963775 209.990077,32.3896975 C209.778729,31.5756255 209.676364,30.7360479 209.685777,29.8938885 L209.685777,22.6857758 L207,22.6857758 L207,18.5050704 L209.646086,18.5050704 L209.646086,14 L215.070562,14 L215.070562,18.5050704 L219,18.5050704 L219,22.6902809 L215.070562,22.6902809 Z" id="Path" fill="#FFFFFF"></path>
                <path d="M233.286364,36 L233.286364,26.7146083 C233.286029,26.261008 233.251081,25.8080857 233.181818,25.359736 C233.123476,24.9547023 232.989349,24.5640965 232.786364,24.2080945 C232.594969,23.8849045 232.326468,23.6134767 232.004545,23.4177523 C231.6243,23.2083856 231.19347,23.1068383 230.759091,23.1241966 C229.873433,23.0822057 229.023635,23.4756663 228.486364,24.1764808 C227.937035,24.9296714 227.657031,25.8437719 227.690909,26.7733194 L227.690909,36 L222,36 L222,10 L227.677273,10 L227.677273,21.051242 L227.745455,21.051242 C228.209299,20.2958182 228.852265,19.6647376 229.618182,19.2131318 C230.544056,18.6545531 231.61271,18.3738151 232.695455,18.4047247 C233.725448,18.3643841 234.749995,18.5720049 235.681818,19.009901 C236.431444,19.3907692 237.085414,19.9340418 237.595455,20.5996179 C238.100556,21.2739888 238.465242,22.0416636 238.668182,22.8577384 C238.885347,23.6881689 238.996823,24.5423837 239,25.4003821 L239,36 L233.286364,36 Z" id="Path" fill="#FFFFFF"></path>
                <path d="M97.1727494,46.9825437 L95.7615572,43.740038 L94.7591241,43.740038 L94.7591241,46.9825437 L94,46.9825437 L94,40.0000137 L95.8734793,40.0000137 C96.1252084,39.9992528 96.3758179,40.0301009 96.6180049,40.0916735 C96.8528385,40.1548942 97.0700902,40.2619791 97.2554745,40.4058867 C97.4542516,40.5619687 97.6092819,40.757812 97.7080292,40.9775802 C97.8294571,41.2553404 97.8873768,41.5521598 97.8783455,41.8503947 C97.8838134,42.1109327 97.8410598,42.37048 97.7518248,42.6184714 C97.6794924,42.8142121 97.5672937,42.996219 97.4209246,43.1552523 C97.2970252,43.2936113 97.1430559,43.4079375 96.9683698,43.4912859 C96.8176593,43.5670426 96.6527181,43.6173361 96.4817518,43.6396643 L98,47 L97.1727494,46.9825437 Z M97.1289538,41.867851 C97.1356667,41.6549972 97.0959958,41.4430143 97.0121655,41.2437886 C96.9478977,41.0908393 96.8426057,40.9544439 96.7055961,40.846658 C96.5783154,40.7466987 96.4266351,40.6749469 96.2627737,40.6371826 C96.095925,40.5984634 95.9241649,40.5793921 95.7518248,40.5804496 L94.7785888,40.5804496 L94.7785888,43.198893 L95.8053528,43.198893 C96.170251,43.2113456 96.5239283,43.0844721 96.7785888,42.8497672 C97.0311924,42.5747344 97.156588,42.2233068 97.1289538,41.867851 L97.1289538,41.867851 Z" id="Shape" fill="#FFFFFF"></path>
                <polygon id="Path" fill="#FFFFFF" points="102 46.9868996 102 40 104.896707 40 104.896707 40.6113537 102.691617 40.6113537 102.691617 43.0655022 104.752994 43.0655022 104.752994 43.6593886 102.691617 43.6593886 102.691617 46.3799127 105 46.3799127 105 47"></polygon>
                <path d="M113.178886,47 L112.690127,45.25 L110.27566,45.25 L109.786901,47 L109,47 L110.994135,40 L112.044966,40 L114,47 L113.178886,47 Z M111.531769,40.6125 L111.487781,40.6125 L110.383187,44.694375 L112.572825,44.694375 L111.531769,40.6125 Z" id="Shape" fill="#FFFFFF"></path>
                <polygon id="Path" fill="#FFFFFF" points="119 47 119 40 119.774351 40 119.774351 46.356875 122 46.356875 122 47"></polygon>
                <path d="M133.999754,44.8620254 C134.004137,45.1702963 133.949867,45.4767799 133.839564,45.7666791 C133.742711,46.0143367 133.594618,46.2410024 133.404046,46.4332661 C133.220729,46.6151485 132.998919,46.7579598 132.753273,46.8522636 C132.501076,46.9518196 132.230373,47.0020191 131.957327,46.999865 C131.566503,47.0038639 131.180333,46.9189768 130.830988,46.7522755 C130.503221,46.598895 130.218418,46.3737 130,46.0952113 L130.500595,45.5667031 C130.669033,45.7973019 130.894153,45.9852691 131.156375,46.1142566 C131.404872,46.2393889 131.681177,46.3063139 131.962332,46.3094714 C132.306919,46.3155396 132.638038,46.1822961 132.873415,45.9428485 C133.136737,45.6535059 133.269801,45.2772418 133.243856,44.8953548 C133.247091,44.6994056 133.2079,44.5049191 133.128719,44.3239945 C133.054978,44.1605245 132.95162,44.0106455 132.823356,43.8811903 C132.69226,43.7516418 132.546156,43.6366364 132.387838,43.5383742 C132.226062,43.4367635 132.058983,43.343004 131.887243,43.2574554 C131.671075,43.1579777 131.46204,43.0450477 131.261499,42.9194006 C131.075704,42.7942574 130.907477,42.6470516 130.760904,42.4813578 C130.609574,42.3059312 130.489507,42.1080924 130.405482,41.8957135 C130.310874,41.6404677 130.265098,41.371168 130.270321,41.1005705 C130.262766,40.7850301 130.3206,40.4711621 130.440524,40.1768715 C130.541883,39.9285557 130.699065,39.7043042 130.901071,39.5198072 C131.086209,39.3469744 131.308107,39.2138474 131.551845,39.1293777 C131.793644,39.0436799 132.049703,39.0001319 132.307743,39.0008216 C132.650766,38.992152 132.991874,39.0521733 133.308933,39.176991 C133.573506,39.3069945 133.799122,39.498653 133.964713,39.7340673 L133.464118,40.2578142 C133.331197,40.0672528 133.148294,39.9129816 132.933487,39.8102486 C132.722098,39.7218362 132.493613,39.676426 132.26269,39.6769313 C132.10211,39.6779818 131.942925,39.705364 131.79213,39.757874 C131.635516,39.8113441 131.493525,39.8975826 131.376636,40.0102247 C131.2503,40.1392256 131.150162,40.2893564 131.081285,40.4530289 C131.003053,40.6573059 130.9657,40.8737027 130.971154,41.0910478 C130.968018,41.2825823 131.001956,41.4730313 131.071273,41.6528854 C131.138277,41.8070494 131.233156,41.9488582 131.351607,42.0718829 C131.470465,42.1970339 131.606912,42.3059852 131.757089,42.3956537 C131.918132,42.4912375 132.085326,42.5771104 132.257684,42.6527658 C132.476535,42.7538915 132.687344,42.8700586 132.888433,43.0003433 C133.096219,43.1259854 133.284872,43.2781841 133.4491,43.4526702 C133.61951,43.6298524 133.755147,43.8346545 133.849576,44.0573598 C133.95227,44.3142443 134.003216,44.5872173 133.999754,44.8620254 L133.999754,44.8620254 Z" id="Path" fill="#FFFFFF"></path>
                <polygon id="Path" fill="#FFFFFF" points="139 47 139 40 140 40 140 47"></polygon>
                <polygon id="Path" fill="#FFFFFF" points="150.2512 47 150.2512 40.91 150.2176 40.91 148.3312 47 147.6256 47 145.7488 40.91 145.72 40.91 145.72 47 145 47 145 40 146.1328 40 147.9664 45.92375 148.0144 45.92375 149.8288 40 151 40 151 47"></polygon>
                <path d="M159.998502,41.8725 C160.007269,42.1706653 159.950307,42.4675618 159.830626,42.7475 C159.732066,42.9763068 159.581626,43.1859915 159.388044,43.364375 C159.207287,43.5269191 158.988936,43.6550893 158.747062,43.740625 C158.508833,43.8272518 158.252813,43.8718829 157.994164,43.871875 L156.793596,43.871875 L156.793596,47 L156,47 L156,40 L157.922944,40 C158.168831,40.0017488 158.413396,40.0311652 158.650406,40.0875 C158.896644,40.1493534 159.124122,40.2568769 159.316823,40.4025 C159.534042,40.5637026 159.707665,40.7637885 159.825539,40.98875 C159.951555,41.2703695 160.010377,41.5709202 159.998502,41.8725 Z M159.199819,41.8725 C159.206673,41.6691411 159.172243,41.4663117 159.098076,41.273125 C159.03697,41.120981 158.938014,40.9821293 158.808108,40.86625 C158.69112,40.7629465 158.548528,40.6836852 158.390962,40.634375 C158.227528,40.5849301 158.055498,40.559779 157.882246,40.5599986 L156.798683,40.5599986 L156.798683,43.255 L157.892421,43.255 C158.243251,43.2588974 158.579612,43.1349229 158.818283,42.91375 C159.10104,42.6254644 159.239991,42.2528163 159.204906,41.876875 L159.199819,41.8725 Z" id="Shape" fill="#FFFFFF"></path>
                <polygon id="Path" fill="#FFFFFF" points="164 47 164 40 164.774351 40 164.774351 46.356875 167 46.356875 167 47"></polygon>
                <polygon id="Path" fill="#FFFFFF" points="172 46.9868996 172 40 174.936747 40 174.936747 40.6113537 172.677711 40.6113537 172.677711 43.0655022 174.756024 43.0655022 174.756024 43.6593886 172.677711 43.6593886 172.677711 46.3799127 175 46.3799127 175 47"></polygon>
                <polygon id="Path" fill="#FFFFFF" points="189.588422 47 188.662214 47 187.491094 40.9975 187.491094 40.9975 186.32888 47 185.402672 47 184 40 184.716921 40 185.888041 46.125 185.888041 46.125 187.076972 40 187.927481 40 189.134224 46.125 189.156489 46.125 190.314249 40 191 40"></polygon>
                <polygon id="Path" fill="#FFFFFF" points="196 46.9868996 196 40 198.901198 40 198.901198 40.6113537 196.691617 40.6113537 196.691617 43.0655022 198.757485 43.0655022 198.757485 43.6593886 196.691617 43.6593886 196.691617 46.3799127 199 46.3799127 199 47"></polygon>
                <path d="M207.164223,47 L206.675464,45.25 L204.27566,45.25 L203.786901,47 L203,47 L204.994135,40 L206.044966,40 L208,47 L207.164223,47 Z M205.497556,40.6125 L205.453568,40.6125 L204.383187,44.694375 L206.577713,44.694375 L205.497556,40.6125 Z" id="Shape" fill="#FFFFFF"></path>
                <polygon id="Path" fill="#FFFFFF" points="212.79845 40.5938865 212.79845 47 212.193798 47 212.193798 40.5938865 211 40.5938865 211 40 214 40 214 40.5938865"></polygon>
                <polygon id="Path" fill="#FFFFFF" points="222.32043 47 222.32043 43.670625 219.67957 43.670625 219.67957 47 219 47 219 40 219.67957 40 219.67957 43.0625 222.32043 43.0625 222.32043 40 223 40 223 47"></polygon>
                <polygon id="Path" fill="#FFFFFF" points="228 46.9868996 228 40 230.896707 40 230.896707 40.6113537 228.691617 40.6113537 228.691617 43.0655022 230.752994 43.0655022 230.752994 43.6593886 228.691617 43.6593886 228.691617 46.3799127 231 46.3799127 231 47"></polygon>
                <path d="M239.168894,46.9825437 L237.759417,43.740038 L236.758202,43.740038 L236.758202,46.9825437 L236,46.9825437 L236,40.0000137 L237.871203,40.0000137 C238.122626,39.9992528 238.372931,40.0301009 238.614824,40.0916735 C238.849372,40.1548942 239.06636,40.2619791 239.251519,40.4058867 C239.450054,40.5619687 239.604896,40.757812 239.703524,40.9775802 C239.824804,41.2553404 239.882653,41.5521598 239.873633,41.8503947 C239.879094,42.1109327 239.836393,42.37048 239.747266,42.6184714 C239.675022,42.8142121 239.562959,42.996219 239.416768,43.1552523 C239.293019,43.2936113 239.139237,43.4079375 238.964763,43.4912859 C238.814326,43.5672254 238.649547,43.6175307 238.478736,43.6396643 L240,47 L239.168894,46.9825437 Z M239.139733,41.867851 C239.146437,41.6549972 239.106815,41.4430143 239.023086,41.2437886 C238.958897,41.0908393 238.853733,40.9544439 238.716889,40.846658 C238.589763,40.7466987 238.438267,40.6749469 238.274605,40.6371826 C238.107959,40.5984634 237.936408,40.5793921 237.764277,40.5804496 L236.792224,40.5804496 L236.792224,43.198893 L237.81774,43.198893 C238.182195,43.2113456 238.535442,43.0844721 238.789793,42.8497672 C239.04209,42.5747344 239.167333,42.2233068 239.139733,41.867851 L239.139733,41.867851 Z" id="Shape" fill="#FFFFFF"></path>
            </g>
        </g>
    </g>
</svg>